<mxfile host="app.diagrams.net" modified="2022-07-21T10:44:09.555Z" agent="5.0 (Windows)" etag="b8s0XH3Vg3KZIGR44I3g" version="20.1.3" type="github">
  <diagram id="FxPRVmeyyBTVfhNJRnU-" name="Página-1">
    <mxGraphModel dx="464" dy="745" grid="0" gridSize="10" guides="1" tooltips="1" connect="1" arrows="1" fold="1" page="1" pageScale="1" pageWidth="1169" pageHeight="827" math="0" shadow="0">
      <root>
        <mxCell id="0" />
        <mxCell id="1" parent="0" />
        <mxCell id="wzzWnJTyB5C26cYD1d-t-14" value="Almacen" style="shape=table;startSize=24;container=1;collapsible=1;childLayout=tableLayout;fixedRows=1;rowLines=0;fontStyle=1;align=center;resizeLast=1;" parent="1" vertex="1">
          <mxGeometry x="338" y="134" width="128" height="113" as="geometry" />
        </mxCell>
        <mxCell id="wzzWnJTyB5C26cYD1d-t-15" value="" style="shape=tableRow;horizontal=0;startSize=0;swimlaneHead=0;swimlaneBody=0;fillColor=none;collapsible=0;dropTarget=0;points=[[0,0.5],[1,0.5]];portConstraint=eastwest;top=0;left=0;right=0;bottom=1;" parent="wzzWnJTyB5C26cYD1d-t-14" vertex="1">
          <mxGeometry y="24" width="128" height="20" as="geometry" />
        </mxCell>
        <mxCell id="wzzWnJTyB5C26cYD1d-t-16" value="PK" style="shape=partialRectangle;connectable=0;fillColor=none;top=0;left=0;bottom=0;right=0;fontStyle=1;overflow=hidden;" parent="wzzWnJTyB5C26cYD1d-t-15" vertex="1">
          <mxGeometry width="30" height="20" as="geometry">
            <mxRectangle width="30" height="20" as="alternateBounds" />
          </mxGeometry>
        </mxCell>
        <mxCell id="wzzWnJTyB5C26cYD1d-t-17" value="id_almacen" style="shape=partialRectangle;connectable=0;fillColor=none;top=0;left=0;bottom=0;right=0;align=left;spacingLeft=6;fontStyle=5;overflow=hidden;" parent="wzzWnJTyB5C26cYD1d-t-15" vertex="1">
          <mxGeometry x="30" width="98" height="20" as="geometry">
            <mxRectangle width="98" height="20" as="alternateBounds" />
          </mxGeometry>
        </mxCell>
        <mxCell id="wzzWnJTyB5C26cYD1d-t-18" value="" style="shape=tableRow;horizontal=0;startSize=0;swimlaneHead=0;swimlaneBody=0;fillColor=none;collapsible=0;dropTarget=0;points=[[0,0.5],[1,0.5]];portConstraint=eastwest;top=0;left=0;right=0;bottom=0;" parent="wzzWnJTyB5C26cYD1d-t-14" vertex="1">
          <mxGeometry y="44" width="128" height="30" as="geometry" />
        </mxCell>
        <mxCell id="wzzWnJTyB5C26cYD1d-t-19" value="" style="shape=partialRectangle;connectable=0;fillColor=none;top=0;left=0;bottom=0;right=0;editable=1;overflow=hidden;" parent="wzzWnJTyB5C26cYD1d-t-18" vertex="1">
          <mxGeometry width="30" height="30" as="geometry">
            <mxRectangle width="30" height="30" as="alternateBounds" />
          </mxGeometry>
        </mxCell>
        <mxCell id="wzzWnJTyB5C26cYD1d-t-20" value="descrip" style="shape=partialRectangle;connectable=0;fillColor=none;top=0;left=0;bottom=0;right=0;align=left;spacingLeft=6;overflow=hidden;" parent="wzzWnJTyB5C26cYD1d-t-18" vertex="1">
          <mxGeometry x="30" width="98" height="30" as="geometry">
            <mxRectangle width="98" height="30" as="alternateBounds" />
          </mxGeometry>
        </mxCell>
        <mxCell id="wzzWnJTyB5C26cYD1d-t-21" value="" style="shape=tableRow;horizontal=0;startSize=0;swimlaneHead=0;swimlaneBody=0;fillColor=none;collapsible=0;dropTarget=0;points=[[0,0.5],[1,0.5]];portConstraint=eastwest;top=0;left=0;right=0;bottom=0;" parent="wzzWnJTyB5C26cYD1d-t-14" vertex="1">
          <mxGeometry y="74" width="128" height="30" as="geometry" />
        </mxCell>
        <mxCell id="wzzWnJTyB5C26cYD1d-t-22" value="" style="shape=partialRectangle;connectable=0;fillColor=none;top=0;left=0;bottom=0;right=0;editable=1;overflow=hidden;" parent="wzzWnJTyB5C26cYD1d-t-21" vertex="1">
          <mxGeometry width="30" height="30" as="geometry">
            <mxRectangle width="30" height="30" as="alternateBounds" />
          </mxGeometry>
        </mxCell>
        <mxCell id="wzzWnJTyB5C26cYD1d-t-23" value="direc" style="shape=partialRectangle;connectable=0;fillColor=none;top=0;left=0;bottom=0;right=0;align=left;spacingLeft=6;overflow=hidden;" parent="wzzWnJTyB5C26cYD1d-t-21" vertex="1">
          <mxGeometry x="30" width="98" height="30" as="geometry">
            <mxRectangle width="98" height="30" as="alternateBounds" />
          </mxGeometry>
        </mxCell>
        <mxCell id="ZTdebMv5ZZNX6EytbIy5-38" value="" style="line;strokeWidth=1;rotatable=0;dashed=0;labelPosition=right;align=left;verticalAlign=middle;spacingTop=0;spacingLeft=6;points=[];portConstraint=eastwest;" parent="1" vertex="1">
          <mxGeometry x="481" y="559.5" width="180" height="10" as="geometry" />
        </mxCell>
        <mxCell id="ZTdebMv5ZZNX6EytbIy5-39" value="" style="shape=partialRectangle;connectable=0;fillColor=none;top=0;left=0;bottom=0;right=0;editable=1;overflow=hidden;fontStyle=1" parent="1" vertex="1">
          <mxGeometry x="614" y="598.5" width="30" height="30" as="geometry">
            <mxRectangle width="30" height="30" as="alternateBounds" />
          </mxGeometry>
        </mxCell>
        <mxCell id="ZTdebMv5ZZNX6EytbIy5-44" value="" style="endArrow=none;html=1;rounded=0;" parent="1" edge="1">
          <mxGeometry relative="1" as="geometry">
            <mxPoint x="511.13" y="564.5" as="sourcePoint" />
            <mxPoint x="511.13" y="624.64" as="targetPoint" />
          </mxGeometry>
        </mxCell>
        <mxCell id="oLvL7BKm5Vh7yWoYtZ-q-17" value="almacena" style="shape=rhombus;perimeter=rhombusPerimeter;whiteSpace=wrap;html=1;align=center;" parent="1" vertex="1">
          <mxGeometry x="512" y="312.5" width="120" height="60" as="geometry" />
        </mxCell>
        <mxCell id="oLvL7BKm5Vh7yWoYtZ-q-19" value="" style="endArrow=none;html=1;rounded=0;exitX=1;exitY=0.5;exitDx=0;exitDy=0;entryX=0;entryY=0.25;entryDx=0;entryDy=0;dashed=1;" parent="1" source="wzzWnJTyB5C26cYD1d-t-15" target="W4LssjJJ3kH9K4Etdbim-5" edge="1">
          <mxGeometry relative="1" as="geometry">
            <mxPoint x="560" y="424.5" as="sourcePoint" />
            <mxPoint x="642" y="175.5" as="targetPoint" />
          </mxGeometry>
        </mxCell>
        <mxCell id="ZTdebMv5ZZNX6EytbIy5-50" value="cantidad" style="ellipse;whiteSpace=wrap;html=1;align=center;" parent="1" vertex="1">
          <mxGeometry x="535" y="217.5" width="73" height="40" as="geometry" />
        </mxCell>
        <mxCell id="wzzWnJTyB5C26cYD1d-t-30" value="0:N" style="text;html=1;strokeColor=none;fillColor=none;align=center;verticalAlign=middle;whiteSpace=wrap;rounded=0;" parent="1" vertex="1">
          <mxGeometry x="677" y="521.5" width="60" height="30" as="geometry" />
        </mxCell>
        <mxCell id="wzzWnJTyB5C26cYD1d-t-31" value="0:N" style="text;html=1;strokeColor=none;fillColor=none;align=center;verticalAlign=middle;whiteSpace=wrap;rounded=0;" parent="1" vertex="1">
          <mxGeometry x="558" y="653.5" width="60" height="30" as="geometry" />
        </mxCell>
        <mxCell id="mYmQpp3Z_e6wwfThaFQg-1" value="&lt;div&gt;&lt;b&gt;DIAGRAMA EJERCICIO 5&lt;/b&gt;&lt;/div&gt;&lt;div&gt;&lt;br&gt;&lt;/div&gt;" style="text;html=1;align=center;verticalAlign=middle;resizable=0;points=[];autosize=1;strokeColor=none;fillColor=none;" parent="1" vertex="1">
          <mxGeometry x="487" y="60" width="152" height="41" as="geometry" />
        </mxCell>
        <mxCell id="W4LssjJJ3kH9K4Etdbim-5" value="Estantería" style="shape=table;startSize=24;container=1;collapsible=1;childLayout=tableLayout;fixedRows=1;rowLines=0;fontStyle=1;align=center;resizeLast=1;" parent="1" vertex="1">
          <mxGeometry x="676" y="141.5" width="128" height="103" as="geometry" />
        </mxCell>
        <mxCell id="pvoA8-hrQngGMoVZlRHf-1" value="" style="shape=tableRow;horizontal=0;startSize=0;swimlaneHead=0;swimlaneBody=0;fillColor=none;collapsible=0;dropTarget=0;points=[[0,0.5],[1,0.5]];portConstraint=eastwest;top=0;left=0;right=0;bottom=1;" vertex="1" parent="W4LssjJJ3kH9K4Etdbim-5">
          <mxGeometry y="24" width="128" height="20" as="geometry" />
        </mxCell>
        <mxCell id="pvoA8-hrQngGMoVZlRHf-2" value="PK" style="shape=partialRectangle;connectable=0;fillColor=none;top=0;left=0;bottom=0;right=0;fontStyle=1;overflow=hidden;" vertex="1" parent="pvoA8-hrQngGMoVZlRHf-1">
          <mxGeometry width="30" height="20" as="geometry">
            <mxRectangle width="30" height="20" as="alternateBounds" />
          </mxGeometry>
        </mxCell>
        <mxCell id="pvoA8-hrQngGMoVZlRHf-3" value="id_estanteria" style="shape=partialRectangle;connectable=0;fillColor=none;top=0;left=0;bottom=0;right=0;align=left;spacingLeft=6;fontStyle=5;overflow=hidden;" vertex="1" parent="pvoA8-hrQngGMoVZlRHf-1">
          <mxGeometry x="30" width="98" height="20" as="geometry">
            <mxRectangle width="98" height="20" as="alternateBounds" />
          </mxGeometry>
        </mxCell>
        <mxCell id="W4LssjJJ3kH9K4Etdbim-6" value="" style="shape=tableRow;horizontal=0;startSize=0;swimlaneHead=0;swimlaneBody=0;fillColor=none;collapsible=0;dropTarget=0;points=[[0,0.5],[1,0.5]];portConstraint=eastwest;top=0;left=0;right=0;bottom=1;" parent="W4LssjJJ3kH9K4Etdbim-5" vertex="1">
          <mxGeometry y="44" width="128" height="20" as="geometry" />
        </mxCell>
        <mxCell id="W4LssjJJ3kH9K4Etdbim-7" value="" style="shape=partialRectangle;connectable=0;fillColor=none;top=0;left=0;bottom=0;right=0;fontStyle=1;overflow=hidden;" parent="W4LssjJJ3kH9K4Etdbim-6" vertex="1">
          <mxGeometry width="30" height="20" as="geometry">
            <mxRectangle width="30" height="20" as="alternateBounds" />
          </mxGeometry>
        </mxCell>
        <mxCell id="W4LssjJJ3kH9K4Etdbim-8" value="nom" style="shape=partialRectangle;connectable=0;fillColor=none;top=0;left=0;bottom=0;right=0;align=left;spacingLeft=6;fontStyle=0;overflow=hidden;" parent="W4LssjJJ3kH9K4Etdbim-6" vertex="1">
          <mxGeometry x="30" width="98" height="20" as="geometry">
            <mxRectangle width="98" height="20" as="alternateBounds" />
          </mxGeometry>
        </mxCell>
        <mxCell id="W4LssjJJ3kH9K4Etdbim-9" value="" style="shape=tableRow;horizontal=0;startSize=0;swimlaneHead=0;swimlaneBody=0;fillColor=none;collapsible=0;dropTarget=0;points=[[0,0.5],[1,0.5]];portConstraint=eastwest;top=0;left=0;right=0;bottom=0;" parent="W4LssjJJ3kH9K4Etdbim-5" vertex="1">
          <mxGeometry y="64" width="128" height="30" as="geometry" />
        </mxCell>
        <mxCell id="W4LssjJJ3kH9K4Etdbim-10" value="" style="shape=partialRectangle;connectable=0;fillColor=none;top=0;left=0;bottom=0;right=0;editable=1;overflow=hidden;" parent="W4LssjJJ3kH9K4Etdbim-9" vertex="1">
          <mxGeometry width="30" height="30" as="geometry">
            <mxRectangle width="30" height="30" as="alternateBounds" />
          </mxGeometry>
        </mxCell>
        <mxCell id="W4LssjJJ3kH9K4Etdbim-11" value="" style="shape=partialRectangle;connectable=0;fillColor=none;top=0;left=0;bottom=0;right=0;align=left;spacingLeft=6;overflow=hidden;" parent="W4LssjJJ3kH9K4Etdbim-9" vertex="1">
          <mxGeometry x="30" width="98" height="30" as="geometry">
            <mxRectangle width="98" height="30" as="alternateBounds" />
          </mxGeometry>
        </mxCell>
        <mxCell id="pvoA8-hrQngGMoVZlRHf-6" value="" style="endArrow=none;html=1;rounded=0;entryX=0.5;entryY=1;entryDx=0;entryDy=0;exitX=0.5;exitY=0;exitDx=0;exitDy=0;" edge="1" parent="1" source="oLvL7BKm5Vh7yWoYtZ-q-17" target="ZTdebMv5ZZNX6EytbIy5-50">
          <mxGeometry width="50" height="50" relative="1" as="geometry">
            <mxPoint x="364" y="405.5" as="sourcePoint" />
            <mxPoint x="414" y="355.5" as="targetPoint" />
          </mxGeometry>
        </mxCell>
        <mxCell id="pvoA8-hrQngGMoVZlRHf-8" value="" style="endArrow=none;html=1;rounded=0;entryX=0.5;entryY=1;entryDx=0;entryDy=0;exitX=1;exitY=0.5;exitDx=0;exitDy=0;dashed=1;" edge="1" parent="1" source="oLvL7BKm5Vh7yWoYtZ-q-17" target="W4LssjJJ3kH9K4Etdbim-5">
          <mxGeometry width="50" height="50" relative="1" as="geometry">
            <mxPoint x="558" y="472" as="sourcePoint" />
            <mxPoint x="608" y="422" as="targetPoint" />
          </mxGeometry>
        </mxCell>
        <mxCell id="pvoA8-hrQngGMoVZlRHf-10" value="" style="endArrow=none;html=1;rounded=0;dashed=1;exitX=0.5;exitY=0;exitDx=0;exitDy=0;entryX=0.5;entryY=1;entryDx=0;entryDy=0;" edge="1" parent="1" source="ZTdebMv5ZZNX6EytbIy5-16" target="oLvL7BKm5Vh7yWoYtZ-q-17">
          <mxGeometry width="50" height="50" relative="1" as="geometry">
            <mxPoint x="521" y="420" as="sourcePoint" />
            <mxPoint x="571" y="370" as="targetPoint" />
          </mxGeometry>
        </mxCell>
        <mxCell id="pvoA8-hrQngGMoVZlRHf-14" value="" style="group" vertex="1" connectable="0" parent="1">
          <mxGeometry x="481" y="474.5" width="180" height="150" as="geometry" />
        </mxCell>
        <object label="Pieza" id="ZTdebMv5ZZNX6EytbIy5-16">
          <mxCell style="shape=table;startSize=30;container=1;collapsible=1;childLayout=tableLayout;fixedRows=1;rowLines=0;fontStyle=1;align=center;resizeLast=1;" parent="pvoA8-hrQngGMoVZlRHf-14" vertex="1">
            <mxGeometry width="180" height="150" as="geometry">
              <mxRectangle x="70" y="210" width="68" height="30" as="alternateBounds" />
            </mxGeometry>
          </mxCell>
        </object>
        <mxCell id="ZTdebMv5ZZNX6EytbIy5-17" value="" style="shape=tableRow;horizontal=0;startSize=0;swimlaneHead=0;swimlaneBody=0;fillColor=none;collapsible=0;dropTarget=0;points=[[0,0.5],[1,0.5]];portConstraint=eastwest;top=0;left=0;right=0;bottom=1;" parent="ZTdebMv5ZZNX6EytbIy5-16" vertex="1">
          <mxGeometry y="30" width="180" height="30" as="geometry" />
        </mxCell>
        <mxCell id="ZTdebMv5ZZNX6EytbIy5-18" value="PK" style="shape=partialRectangle;connectable=0;fillColor=none;top=0;left=0;bottom=0;right=0;fontStyle=1;overflow=hidden;" parent="ZTdebMv5ZZNX6EytbIy5-17" vertex="1">
          <mxGeometry width="30" height="30" as="geometry">
            <mxRectangle width="30" height="30" as="alternateBounds" />
          </mxGeometry>
        </mxCell>
        <mxCell id="ZTdebMv5ZZNX6EytbIy5-19" value="tipo" style="shape=partialRectangle;connectable=0;fillColor=none;top=0;left=0;bottom=0;right=0;align=left;spacingLeft=6;fontStyle=5;overflow=hidden;" parent="ZTdebMv5ZZNX6EytbIy5-17" vertex="1">
          <mxGeometry x="30" width="150" height="30" as="geometry">
            <mxRectangle width="150" height="30" as="alternateBounds" />
          </mxGeometry>
        </mxCell>
        <mxCell id="ZTdebMv5ZZNX6EytbIy5-20" value="" style="shape=tableRow;horizontal=0;startSize=0;swimlaneHead=0;swimlaneBody=0;fillColor=none;collapsible=0;dropTarget=0;points=[[0,0.5],[1,0.5]];portConstraint=eastwest;top=0;left=0;right=0;bottom=0;" parent="ZTdebMv5ZZNX6EytbIy5-16" vertex="1">
          <mxGeometry y="60" width="180" height="30" as="geometry" />
        </mxCell>
        <mxCell id="ZTdebMv5ZZNX6EytbIy5-21" value="PK" style="shape=partialRectangle;connectable=0;fillColor=none;top=0;left=0;bottom=0;right=0;editable=1;overflow=hidden;fontStyle=1" parent="ZTdebMv5ZZNX6EytbIy5-20" vertex="1">
          <mxGeometry width="30" height="30" as="geometry">
            <mxRectangle width="30" height="30" as="alternateBounds" />
          </mxGeometry>
        </mxCell>
        <mxCell id="ZTdebMv5ZZNX6EytbIy5-22" value="modelo" style="shape=partialRectangle;connectable=0;fillColor=none;top=0;left=0;bottom=0;right=0;align=left;spacingLeft=6;overflow=hidden;fontStyle=5" parent="ZTdebMv5ZZNX6EytbIy5-20" vertex="1">
          <mxGeometry x="30" width="150" height="30" as="geometry">
            <mxRectangle width="150" height="30" as="alternateBounds" />
          </mxGeometry>
        </mxCell>
        <mxCell id="ZTdebMv5ZZNX6EytbIy5-51" style="edgeStyle=orthogonalEdgeStyle;rounded=0;orthogonalLoop=1;jettySize=auto;html=1;entryX=1.011;entryY=0.9;entryDx=0;entryDy=0;entryPerimeter=0;" parent="ZTdebMv5ZZNX6EytbIy5-16" source="ZTdebMv5ZZNX6EytbIy5-16" target="ZTdebMv5ZZNX6EytbIy5-17" edge="1">
          <mxGeometry relative="1" as="geometry">
            <mxPoint x="241" y="254" as="targetPoint" />
            <Array as="points">
              <mxPoint x="90" y="180" />
              <mxPoint x="208" y="180" />
              <mxPoint x="208" y="57" />
            </Array>
          </mxGeometry>
        </mxCell>
        <mxCell id="pvoA8-hrQngGMoVZlRHf-13" value="" style="group" vertex="1" connectable="0" parent="pvoA8-hrQngGMoVZlRHf-14">
          <mxGeometry y="92" width="180" height="58" as="geometry" />
        </mxCell>
        <mxCell id="ZTdebMv5ZZNX6EytbIy5-40" value="descrip" style="shape=partialRectangle;connectable=0;fillColor=none;top=0;left=0;bottom=0;right=0;align=left;spacingLeft=6;overflow=hidden;" parent="pvoA8-hrQngGMoVZlRHf-13" vertex="1">
          <mxGeometry x="30" width="150" height="28" as="geometry">
            <mxRectangle width="150" height="30" as="alternateBounds" />
          </mxGeometry>
        </mxCell>
        <mxCell id="ZTdebMv5ZZNX6EytbIy5-41" value="precio" style="shape=partialRectangle;connectable=0;fillColor=none;top=0;left=0;bottom=0;right=0;align=left;spacingLeft=6;overflow=hidden;" parent="pvoA8-hrQngGMoVZlRHf-13" vertex="1">
          <mxGeometry x="30" y="26" width="150" height="32" as="geometry">
            <mxRectangle width="150" height="30" as="alternateBounds" />
          </mxGeometry>
        </mxCell>
        <mxCell id="ZTdebMv5ZZNX6EytbIy5-42" value="" style="endArrow=none;html=1;rounded=0;" parent="pvoA8-hrQngGMoVZlRHf-13" edge="1">
          <mxGeometry relative="1" as="geometry">
            <mxPoint y="28" as="sourcePoint" />
            <mxPoint x="180" y="28" as="targetPoint" />
          </mxGeometry>
        </mxCell>
        <mxCell id="wzzWnJTyB5C26cYD1d-t-29" value="&lt;div&gt;contiene&lt;/div&gt;" style="shape=rhombus;perimeter=rhombusPerimeter;whiteSpace=wrap;html=1;align=center;" parent="1" vertex="1">
          <mxGeometry x="652" y="637" width="77" height="35" as="geometry" />
        </mxCell>
        <mxCell id="pvoA8-hrQngGMoVZlRHf-18" value="" style="shape=image;verticalLabelPosition=bottom;labelBackgroundColor=default;verticalAlign=top;aspect=fixed;imageAspect=0;image=data:image/png,iVBORw0KGgoAAAANSUhEUgAAAWcAAAJ/CAYAAACk1RLmAAAgAElEQVR4Xu2df4gd2XXnSxMS25t4bGvjyIHWkjXoD0Vy64+AYxJYES+SwtombRwkEIFAdwcUPGEje4NZJGcyQQ2xiaVsYocBR4Is+UELTJzggUiC/Jc/AmKDRMuzROCQSN4dbYySnWSdHybW9qnxeT59+lbdqvfq1a1b9XkwaF7XrXvP/Zz7vnXfqXrnHHi2+yp4QQACEIDAoAgcQJwH5Q+MgQAEIFASQJxZCBCAAAQGSABxHqBTMAkCEIAA4swagAAEIDBAAojzAJ2CSRCAAAQQZ9YABCAAgQESQJwH6BRMggAEIIA4swYgAAEIDJAA4jxAp2ASBCAAAcSZNQABCEBggAQQ5wE6BZMgAAEIIM6sAQhAAAIDJIA4D9ApmAQBCEAgW3E+cOBA0HvHjh0rdnZ2Zse03aNHj4qVlZXePH7jxo1iY2Oj6Hvc3ibIQBCAwFIJjE6chZYV6BTi/Pjx4+Lw4cPF2bNni+3t7aU6kM4hAIFxEshenO3OVEVRXHXv3r1idXU1idd013z79u3i1KlTSWxgUAhAIG8CoxJnccW5c+eKmzdvzsQ5tHPWNuo6W2/g/v37xYkTJ4Je1XahNtevXy/W19fL844fP148ePCAkEbenw2sh0BSAqMS59DO2YuzCqenXie8XsSr4t2yWz948GAZ0pAXRWaSrm0Gh0DWBLIX5xB9G+u14vz06dNyV2yPawjC7ny1T7tDDh3XdroTlzDGoUOHyjH8jcmsVwnGQwACvRMYnTj7m3BWnEU85QmK0OvSpUvFlStXZoeaCLMPj1hx5mZg72uZASEwKgLZi3PsUbWm4mzF1IZHvGiL97VPDVuEds6I86g+J0wGAr0TmJQ4v/rqq8Xp06ejj7ip+IaEWcMg9pi2J6zR+/plQAiMlsCkxFl+hFJ1Q1Afe1PxDXlcbvg9efKkFPjQS/vwO+vRrh4mBgEILI3A5MRZSHqBts8jx8RZnp2+fPlysbW1VTpFdtASwpCbgLqb1jBHLOSyNK/SMQQgkD2BbMV5yOT5EcqQvYNtEMiDAOK8JD9JaIObgkuCS7cQmAABxHlJTibx0ZLA0i0EJkIAcZ6Io5kmBCCQFwHEOS9/YS0EIDARAojzRBzNNCEAgbwIIM55+QtrIQCBiRBAnCfiaKYJAQjkRQBxTuivO3fudJaMP9aXPS6P+VEIIKHjGRoCDQggzg0gLaOJ/IrwyJEjezLhzTtOrK/Y8XnH5TwIQGB5BBDn5bGt7blLwYz1FTueCAHDQgACNQQQ5wTLw+aBtkn5fX5ozc2huTxsXURtK+dLSSx5hRL8h8ayYQ39f5vMyddfrLIrATqGhMBkCCDOiVztd7PyXl5arVuT/atQqkBLDmmJH4uYqnjHdsb+uBdnGVfH0b71vbeLXz4mWjAMOzkCiHMil1vBVCH2NQdFkOWlFVo0X4cUsLVlsxYVZ1+CS/vTbHs+u15svERIGRYCoyKAOCdypxU43a2GTLHJk1TEfUKlmFjGds7+yQ3ZHd+6davY3Nwsd+ihi8bDhw9nu/xECBkWAqMmgDgncq8X54sXLxY7Ozu11thc01YwEedETmRYCCyRAOK8RLh1XYfCGnXJ+bWuoexyRcjX1tZm4Y5FxZmwRqJFwLAQqCGAOCdaHqEbgvLUhd09S4xZq6tI9RZ5GkNuGGp4Q8MRi4qzINALQ+hmo7WLG4KJFgzDTo4A4pzI5TbO7Kt4q0m6o9VH2WwoQ0XS1zX08WHpy4/ln9aQC4CW3bJCrXbUPUoXuzAkwsuwEMieAOKcvQsXm0AXP+WWp0r0iZLFrOFsCEBACSDOI18LWgl8GdOUXbqEWO7evVusr68vYwj6hMBkCSDOk3X9GxNfdOcsu+YLFy4UKysrEyfJ9CHQLQHEuVue9AYBCECgEwKIcycY6QQCEIBAtwQQ52550hsEIACBTgggzp1gpBMIQAAC3RJAnLvlSW8QgAAEOiGAOHeCsX0nbZ+SiJWham9B+zPa2NymbXtLOAMC4yeAOGfg46H8Cq+N4LZpm4ELMBECvRNAnHtH3n5AxLk9M86AQO4EEOdEHoyVirJJjSS5vrxCZajk71WlpuSXexsbG+W5Pge0/C1WfkqSLWkJLMnzIX3Z3M915/udc2ysRG5gWAgMlgDinMg1oVJRmrSobRkq/Ym2nq8lrWwq0JBYytS1LJbPNifC7NOSykXCXjTs+b6slh2PUleJFhnDZk0AcU7kPi/OPqeyHLd1/I4cOVKZXMgLr4q7T8h/5syZMgeGCmlV+SktT2XPt/mkDx06VJw4cSJYIUVwShIktUnbUuoq0UJj2GwJIM6JXBcKa5w6dWpmjd95diHO2kdIvGVg2XFL+SkR8atXr+6rzKI2SVtbrdsi1PCJb0upq0QLjWGzJYA4J3Jd7uIcK6uFOCdaWAw7GgKIcyJXphTnrsIadWW1CGskWlgMOxoCiHMiV6YUZ5my3KSrKz9ly2Jpe39DsK6slg/LUOoq0UJj2GwJIM6JXNdGnEMlrazZTW8I+rh17PG2to/SxZ4O0UcCxXa76x7Kc9yJlgLDQiBIAHFmYQyCAKWuBuEGjBgQAcR5QM6Yx5RllqGax56251Dqqi0x2k+FAOI8FU8PeJ6UuhqwczAtGQHEORl6BoYABCBQTQBxZnVAAAIQGCABxHmATsEkCEAAAogzawACEIDAAAkgzgN0CiZBAAIQQJxZAxCAAAQGSABxTuiULusCtu0rdRmpLscP9aX5Qy5dulSZajWh6xkaAlECiHMU0XIadPmT5Xn66lIcl0NosV6FyebmZmHTsC7WI2dDoF8CiHO/vGejzSOoVabO09fYxVmKA6ysrCTyLsNCYHECiPPiDFv3YBMO2bqAVYmItOyUVkaRAbWtnK91/qpqDEr7tkmMbGIim3hJ+gqFCmL1BOWcra2tkpX0ffjw4VnJq6oaiKurq3suZlWJk9rUKwyNZesitnYmJ0BgSQQQ5yWBjXXrd7u+zp6vyacCLbko2tYYXKQeoMxDSlJZsY7VI/SVVqS9v3CEaijqxUfPt2W6xA6tdxjqv6q2oa+N6OstepYxv3EcAn0RQJz7Iu3GseKsQhwq5SSnSU0+eYmwSBko2UHa9Jx1YY1Q323qAWo9warE+tpX6LiGFsTuUI1EFdTQcZ3ThQsXyl12rH/pq0m9wipb7LeSREuCYSGwhwDinGhBWEH1YQNrktbkk7+p0Nq/yd/rxFl2jovWA7QhCz92VT1CO4dQfDuWz1rsvnXrVnlTT+oV+gtXqH/5W6it1kaUnXfMlkTLgWEhsI8A4pxoUXhxjtXkEzP1K7r8v6+sXVUAtok4NxlbxrQXEY07I86JFhDDjp4A4pzIxaGwRl1NPhuKEDFdW1ubhTu6CGvUje0RiSCroFfVI2y7c/ZhD51TLKwi47SpV8jOOdGCZ9jWBBDn1si6OSF0Q7CuJp+t6aeCaG+CVe2cxdpF6gGePHmyDBX4slLSr96gi93MjAmi3qTTMUI3PO14/mZpm3qFMVu68S69QGBxAojz4gzn6iFUF9A/jqa7Sf27DWVoiENuZD158qQUUB/usIa1fZTO7mRtOEX69HFn+Zu33d5giwmiHLeP2kl/fiffpv/YY33+0bmxP/M91wLlpOQEEOfkLsAAxJE1AIH9BBBnVkVyAohzchdgwAAJIM4DdMrUTEKcp+Zx5tuEAOLchBJtIAABCPRMAHHuGTjDQQACEGhCAHFuQok2EIAABHomgDj3DJzhIAABCDQhgDg3oUQbCEAAAj0TQJx7Bl43XJdPLcT6ih0fEJbSlNzsHRo/7MmPAOI8IJ91KUCxvmLHB4QFUyAwSQKI84Dc3qVgxvqKHR8QFkyBwCQJIM4J3d4230VdNRL/1V+Tym9sbMxmWJfvoi4fhUekwq75POS479uXpZJ6frEx2uTEiPWV0K0MDYFOCCDOnWBs30nb0lGhckt1CXyqMr2piPpMbjIDzTLns76FxNkKsi8rJX37slSxzHX++CKlqNp7gzMgMDwCiHMCnzQtHRXKzKapQZtkevPibdOU+hzIsRJZFpPuytfX12d/9n3brHaxMlxdl6JK4FKGhEDnBBDnzpHGO2xSnWTRcksioL4unpZ+suWaxFobnrDWh1KD+vCJtg/1ferUqfJwrAxX16Wo4h6gBQSGTwBxTuCjoYlz0zJViiq0a4+Jc90YbUpd6cUktNN/+PDhLDSTwK0MCYFOCSDOneJs1lkXYQ2JWV+7dq3Q3aktYyV/CwloXVijTZmqJmENG1KJlbKKHbe79SYVtpt5gVYQGDYBxDmRf9qWjvI3BP0NNKkwvbW1Vago6g1B3WH60k91pZ1UDLWIq0dUdbNRBb7qwlBXhit2w7DOXs8mkUsZFgKdEkCcO8XZrrNFHqVTAdURRZQldmzFWW7K2Ufp6h7FqyqRFZpRrKxU1TPUsTG6KkXVzgu0hsAwCSDOw/TLoK3iByyDdg/GjYQA4jwSR/Y5DcS5T9qMNVUCiPNUPb/AvBHnBeBxKgQaEkCcG4KiGQQgAIE+CSDOfdJmLAhAAAINCSDODUHRDAIQgECfBBDnPmkzFgQgAIGGBBDnhqBoBgEIQKBPAohzn7QZCwIQgEBDAlmKs+aRsGkpG86XZhCAAASyIJClOAtZ/alvm4Q9WXgEIyEAAQjsEshWnDWRD7tn1jEEIDBGAtmKs4Y2fDmkMTqJOUEAAtMjkK04i6t86srpuY8ZQwACYyWQtThryk1fjmmszmJeEIDAdAhkLc56UxBxns6CZaYQmAoBxHkqnmaeEIBAVgSyFmfCGlmtNYyFAARaEMhanH2dvBbzpikEIACBQRPIVpz1UbqzZ88W29vbg4aMcRCAAATaEshWnPkRSltX0x4CEMiJQLbirE9qPHv2LCfe2AoBCECgEYEsxZnER418SyMIQCBjAlmKc8a8MR0CEIBAIwKIcyNMNIIABCDQLwHEuV/ejAYBCECgEQHEuREmGkEAAhDolwDi3C9vRoMABCDQiADi3AgTjSAAAQj0SwBx7pc3o0EAAhBoRABxboSJRhCAAAT6JYA498ub0SAAAQg0IoA4N8JEIwhAAAL9EkCc++XNaBCAAAQaEUCcG2GiEQQgAIF+CSDO/fJmNAhAAAKNCCDOjTDRCAIQgEC/BBDnfnkzGgQgAIFGBBDnRphoBAEIQKBfAohzv7wZDQIQgEAjAohzI0w0ggAEINAvAcS5X96MBgEIQKARAcS5ESYaQQACEOiXAOLcL29GgwAEINCIAOLcCBONIAABCPRLAHHulzejQQACEGhEAHFuhIlGEIAABPolMApxPnDgQEnt+vXrxfr6+oyg/v3Ro0fFyspKv2TNaDdu3Cg2Njb22dfGIO0j9Vza2ExbCEBgfgLZi/OdO3eK06dPlwSOHTtW7OzsDE6c5SLhLxxtXPb48ePi8OHDxdmzZ4vt7e02p9IWAhDIlED24nzu3Lni5s2bxaVLl4qtra3i3r17xerqaumOoeycF10bumu+fft2cerUqUW743wIQCADAlmLs+4oRZhlV3nixIk9u0srzuIL2X3KS0ROd9ty7pUrVwoVeT0uInj//v2yT/vyO+DLly+XFwV9eQG1/UqbZ8+e7elPbbQ2SQN7kTl+/Hjx4MGDgpBGBp8oTIRARwSyFme/o1QhVBGrEmfPTsIhIn72JSKq5/v2KpxeeLWdHldR9edbga4aQ4VcL0AhYe9oDdANBCAwQAJZi7OKn4qdxp91d1u3c5adsd31ah91oRAVY9nlHj16dLYT14uBji+7eNmR+5186Magv5lpxVj6ffr0admPj6cPcC1hEgQg0CGBbMU5FHJQLipkVeKsQqxiqaENOV8F34YV/A5ZxFleEhqpukmnfYd8ZccLXQysDXK+F/kO/U9XEIDAQAlkK84+1hsKPWi8WHag8tKYc1Nx1vO1vd05LyLOVtAR54F+MjALAokJZCvOKmr+BpsNLchTHPKaR5xfeuml4sUXXyzDE3LDUF725l0orKG7edm5X7t2rXZnrX5vKs6ENRJ/UhgeAj0TyFKcVYCtcFpu/ibbPOL88ssvFxcuXAi6Q5/IqLohqMerbgjaJzpi4iyPBVZdiHpeKwwHAQj0SCBLcVZRtHFhy8yHPOYRZ+lbdt76mJx9XM9eFGKP0nmB9o/aNRFn/xRKj+uDoSAAgUQEshTnRKySDcuPUJKhZ2AIJCOAOCdD325g2WHz8+12zGgNgZwJIM6ZeI/ER5k4CjMh0BEBxLkjkHQDAQhAoEsCiHOXNOkLAhCAQEcEEOeOQNINBCAAgS4JIM5d0qQvCEAAAh0RQJw7Akk3EIAABLokgDh3SZO+IAABCHREAHHuCGTbbuS55TaVTeQn61VVUGJ9xY63sb3LvtqM69tqHpOqn/Av0jfnQmAIBBDnIXghYoP8fPvIkSOzBExtTe5SULvsq+08bHthsrm5SdmuRSBy7qAJIM6Dds8bxiHO+50kRQlSVlTPYNlgYuYEEOdEDrQ7UP1/rWsoJoUy31WlDfW7WZtsSarCbGxsNA6h2EosisanTVXbQnZLwqi7d++WY8rL/+Q81r9ejDTdq7z3tRN9NkB7vI5lIlczLATmIoA4z4Vt8ZO8OEuPvtyWik5s52z7EmFeW1ubhUBsgYAmlbu90Gt6Vs0AWGe3ZuizRXB9f7H+xV55bW9vl//q+LbggT2usWdrXx3LxT1HDxDohwDi3A/nfaN4kfNVveW4LSRbF3PWvg4dOlSWtLIFCHSn2uTmYyhUoOdXibPt1wup7oLPnDlTrK+vF7H+Dx48WFarCVUZl3O1nqIvsCAXBXlJUQRhUccykbsZFgKtCSDOrZF1c0IorGF3tvZ4052ziNrVq1eLnZ2dPUbOcxOvKg91nd1V4hy6sIT6F6MltOPFVyej/Yc8oOGT0FznmX83XqYXCMxPAHGen91CZw5VnFU0Nc7sd96LinNd/03E+eLFi/suPtYRiPNCy5KTB0QAcU7kjGWI86JhjdDOV2O6/iag7PKr4sd252t3/bH+1f5QWEPcpLZUHZc2iHOiBc2wnRNAnDtH2qzDZYizCKbsTOWpDr2h1uaGYEj8xE55dSHOTfr3NwT9DT85/uDBgz27Z7FRd/qIc7P1R6vhE0CcE/mojTjbWGsoHtvlo3S+JqLcCDx//vzsCZBFwxqx/sUd/lE5XyvSH697OsTvpmPx+0TLgWEhsI8A4jyCRfH65z4nz+EVz7/wQjkb3u/l8c3XXy+ee/75maflAiFPdvCCwJAJIM5D9k4D2zTs0KDp5JvItw4Jk8iPZOTRPl4QGDIBxHnI3mlg21+/+93Fu770pbLlkw99qNxBHwq83/mLvyh+6MMfru3x597+9uIX3vGO4Pmx/od+/Lt+8AfLucuu+cKFC/z0u8HaoklaAohzWv6djv4vX/5y2Z8KEe/38mgK+9abPh5seuafP9O0C9pBYGECiPPCCOlgbAQQ57F5NM/5IM55+g2rl0gAcV4iXLpuTABxboyKhlMhgDhPxdPDnifiPGz/YF0CAohzAugMuY8A4pxwUdSVnmprVtu+UicD6nL8UF+LlLFCnNuuPtovgwDivAyqDfrs8pdq8/TVpTg2mG7vTbooY6UizVMavbuPAXcJIM6JlsE8glpl6jx9jV2cuyhjhTgn+nAwbEkAcU6wEGxuCFt6qqr8kuajsDkmtK2cL4mA5FVVxkqOxUpX1ZV+8nmUQxWvY6Wj5Jytra3STskqJ0n1Y+WuVldXZ96J9W+T/jdpGyoJ5pcC4pzgw8GQMwKIc6LF4He7sWxsKtDyE2QVy6ZlrGKlq+rGFjxSXSVUp0+LA8RKS8ku3V84fAIlGUcvPr40VpP+bc1F6Uuz8t24caOsZ6j268/dq0qC2eWAOCf6cDAsO+eUa8CKs968qiu/VH7N2RU5qfghxU9tJra6sEaob5tAP5QDWsbS0k8ynhdny037qiotJRWyq0pH2Z2zLy2lc5KfWteVrtL+pa+qfNCWT5syVohzyk8IY7NzTrQGQknoQ6bY6tUqtL6idZ04y86xrnSVjGm/4lsbdBwbJvBjhxLo+3nEciyHjovdt27dKjY3N2tLV+lFS8RZ5xK6yD18+LDcTcdsYeec6APBsPsIIM6JFoUX51j5JTFTv6LL/1dVG/HTaSLOTcaWfm3sWePOiHOiBcSwoyeAOCdycSisUVd+yYYiREzX1tZmOYm7CGvUje0RiSCroHdROioUatA5xcIqdufcNKzhK5FXPblCWCPRh4NhSwKIc6KFELohWFd+yZaf8nX9Yo/SxUpXyflVY588ebIMK1jx9jfoYjczY6EEvUmnY4RueIqb9CafL11l+/dzCd0QRJwTLXqGbUUAcW6Fq7vGodJT/hEwvUmmf7ehDBUdecLhyZMns7hxqIyVWN32UTp7g86GU6QvH3eWv3nb7WN/TcTZPmon/fmdfJv+mzxKp0+a2J23/M1e6Ng5d7fe6ak9AcS5PTPO6JjA0H4Qo2WsEOeOHU13rQggzq1w0XgZBIYkzraMFeK8DG/TZ1MCiHNTUrRbGoEhibMtY4U4L83ldNyAAOLcABJNIAABCPRNAHHumzjjQQACEGhAAHFuAIkmEIAABPomgDj3TZzxIAABCDQggDg3gEQTCEAAAn0TQJz7Jm7Ga1taqs7Utn35lJ3+V3N9Yum6zFSftjMWBJZFAHFeFtlIv7GfXLcxa56+hvT4WmiuMifJSGd/ydeGCW0hkDsBxDmRB+cR1CpT5+lr6OLcRZmpRK5lWAh0QgBx7gRju05s7ochlKnyIQ5fUkoS2tflq5DZL3LcXyia5MZoUmaqnVdoDYFhEUCcE/kjlJVOTKnKvLbMMlVenH1JqVjWOX/c53iOHfdZ5SyHRcpMJXItw0KgEwKIcycY23cSyuecokyVxHS9ONuMdLESWrEyUkImVZmp9l7hDAgMhwDinMgXvhJKrFSUmLmMMlUhcbZPbvjK2xaXpA6NlZFqUylF+hYOXZWZSuRahoVAJwQQ504wtu9kKGWqmohzXRmrmPjGjgs53bkjzu3XEWeMlwDinMi3QylTFRPnWBmqRY9bce66zFQi1zIsBDohgDh3grF9J0MqUxX7QUpdGasrV66UT2rIq+pmZuz4sspMtfcKZ0BgOAQQ50S+GFKZqpg4C6KqElqKr66MVOj8ujJWTR6lqyozlcidDAuBzgkgzp0jpUMIQAACixNAnBdnSA8QgAAEOieAOHeOlA4hAAEILE4AcV6cIT1AAAIQ6JwA4tw5UjqEAAQgsDgBxHlxhvQAAQhAoHMCiHPnSOkQAhCAwOIEEOfFGdIDBCAAgc4JIM6dI6VDCEAAAosTyFKcpUqGpKG0qS0XR0EPEIAABIZDIEtxFnz6E99Hjx4VUqmDFwQgAIExEchWnDU3BbvnMS1H5gIBCCiBbMVZQxu+pBKuhQAEIDAGAtmKs8CXbGryIrQxhqXIHCAAAUsga3E+fvx48eDBg8Kmn8S9EIAABMZAIGtx1puCiPMYliJzgAAERrNzRpxZzBCAwFgJZL1zJqwx1mXJvCAAgazFWW8IPnv2DE9CAAIQGBWBbMVZH6U7e/bsrLDoqDzDZCAAgUkTyFac+RHKpNctk4fA6AlkK856M5CQxujXKBOEwCQJZCnOJD6a5Fpl0hCYFIEsxXlSHmKyEIDAJAkgzpN0O5OGAASGTgBxHrqHsA8CEJgkAcR5km5n0hCAwNAJIM5D9xD2QQACkySAOE/S7UwaAhAYOgHEeegewj4IQGCSBBDnSbqdSUMAAkMngDgP3UPYBwEITJIA4jxJtzNpCEBg6AQQ56F7CPsgAIFJEkCcJ+l2Jg0BCAydAOI8dA9hHwQgMEkCiPMk3c6kIQCBoRNAnIfuIeyDAAQmSQBxnqTbmTQEIDB0Aojz0D2EfRCAwCQJIM6TdDuThgAEhk4AcR66h7APAhCYJAHEeZJuZ9IQgMDQCSDOQ/cQ9kEAApMkgDhP0u1MGgIQGDoBxHnoHsI+CEBgkgQQ50m6nUlDAAJDJ4A4D91D2AcBCEySQLbifODAgVqHPXr0qFhZWRmNU2/cuFFsbGwU169fL9bX1xvNS88ZG4tGk6cRBDIngDjvOvDcuXPF5uZmcerUqU7d2WW/cjFqI8yPHz8uDh8+XJw9e7bY3t7udF50BgEILJ9A9uK86K5QBPTmzZvF7du3OxXnZfXbdEnorrnreTUdn3YQgMBiBEYvzvfv3y9OnDixh5IKlgqoHjx27Fixs7NThM6xu1YNqUg/p0+fnvV97969YnV1tdyJi+D7fuW9P/bs2bM9tmnfly5dKra2tspj0kb/rhejmI3Hjx8vHjx4UCx68VpseXE2BCAwL4HsxTk0cRG2K1euFPrVPtRGROvjH/94UESr4tkqvnXxbhHSKnFWwfT2WIH2fWtYwotznY0HDx4sQxoq7PMuDs6DAATSERi1OOvuUnfEIcxNwg++jQqj7qbtRUB3qv4ctcXGgEM3+XzfarMXZz8XO96hQ4fKbwt180635BgZAhBoQiB7cY59bfe7VS9YdeLsd8AaDgkJpY7jQxt6jgpx3U5fjlWJcNXfQzaqOHMzsMlHgDYQGCaB0YuzYvci7ePO9saZCqGGG6p2zvbCsIg4WxFtKs51NiLOw/ywYRUE2hCYjDgrFN3BalzaC68/bnezi+yc79y5U948jO1mm4iz2CHPPOscvI2ENdp8BGgLgWESyF6cq7BKeEFe/kkNbR96YkNCHteuXdvzBIbtfx5xlvM1lFJ1QzC0a/fhGivar776amMb/dMgw1yGWAUBCHgCoxZneayt7lE6gWGPq4hevnx59hib7E5ltysirzvVJjHnUL8yXlV4RR3TZOcsv3yM2ajfCGIxeT4SEIDAMAlkK87DxDkcq/gRynB8gSUQmIcA4jwPtUzOkV14LMadyVQwEwKTIyZIz84AACAASURBVIA4j9jlJD4asXOZ2ugJIM6jdzEThAAEciSAOOfoNWyGAARGTwBxHr2LmSAEIJAjAcQ5R69hMwQgMHoCiPPoXcwEIQCBHAkgzom8Jo+5tUmELz//rqrUEusrdrwNgi77ajMubSEwNQKIcwYel1/7HTlypMxRPc+rS0Htsq955sI5EJgKAcQ5A08jzhk4CRMh0DEBxLljoE27sztQ/X9b8qoqMZOU0fIvv5u1+TukIIBksGsaQglVj/HZ72wCqFCprrt375Zjysv/QjHWv5zjc1T7/CB1x+tYNvUN7SAwBAKIcyIveHEWMzSDnKYXtVVV6sIati8R5rW1tVkIpEmlF4vAC73aYkt0+ex8arcmY/L1Fn3WPfve9y/2yksrhutxm1vbHtcEU76EWBXLRO5mWAi0JoA4t0bWzQlenK2gyQhy3FZVaSLOmsfZpgnVnWqTnbO0lYx39qXnV4lzSGjt+CK2Z86cKdbX18uajnX9a+3DUCY9Offp06dldkCfBlUuCvKSmLxwq2PZjffoBQLLJ4A4L59xcIRQWMM+jWGPx2LO2lZE7erVq2UF8brdcJMpV6U2rbPb73JlnCrbQ/1LewntVOWg1v5D9ttCuP5CxE3MJh6nzdAIIM6JPDJUcVbR9BXMfZxZLiRVIRC/c7a7/rr+m4jzxYsX9118YhcixDnRImfYhQggzgvhm//kZYjzomGN0M5XY7pdiHOsf7W/qkCA2lJXQCAkxIjz/OuUM9MRQJwTsV+GOMtuVnamUtFFb6i1uSEYEj+tzNKFODfp398Q9Df85PiDBw/27J7FRlulhrBGokXNsJ0SQJw7xdm8szbibGOtoXhsl4/S2fJXMhu5EXj+/PnZEyCLxpxj/Wuc+ubNmzOYejNS/+Afpat7OkTOaRO/b+5BWkJguQQQ5+Xy7aX3f/nyl0sB+s6jR8vxeL+Xh3eCXCDm/bVlLw5lEAjIpmJ3J/YMEvkSECF+7YMfLA7sTuFdr7xSPunA+/08/t1XvlI6WcIk8iMZebSPFwSGTABxHrJ3Gtj21+9+d/H2j32sbPl/P/WpQq60b//EJ/a93/nqV4sf/ZVfqe3x555/vvgvu/+Fzo/1P/Tjz7/wQjl32TVfuHBh3/PWDVDTBAK9EkCce8Xd/WDffP314rldQZXX65/9bPmvChHv9/Lonj49QmB5BBDn5bGlZwhAAAJzE0Cc50bHiRCAAASWRwBxXh5beoYABCAwNwHEeW50nAgBCEBgeQQQ5+WxjfZcV3oqerJrMJQyVk3s7nLeMt6i/fHz7iZeo03fBBDnvol/a7xYprk2Zi3aV5/itKitnkvX/bXhTlsILJMA4rxMujV9dykqi/aFOCdaBAwLgRoCiHOC5WFzQ0iSIs2/XFV+SfNR2BwT2lbOl0RA8rJ92Wl1mXtD+q0rE+VzLtsSV6F5x8pWzVPCK1bGSmza2toqEUmGu8OHD8/KeMXsSbBcGHKiBBDnRI73u91YNjYVaPl5dsoyVnV2CkqpVGJTevoLg593k7JY0m/TEl4xjjKev4g1Sebkky8lWjYMOyECiHMiZ1uR0rSYdeWXxEwREan4IRnbbCa2WFhDxWfRfM8xO8U2L84er7U1VrZqdXU1WnaqLceqMlaSZvTobuKoWJmuRMuFYSdIAHFO5HQrKk3KL4mZKo6+onVTcV60jFUTO21IwdupIZFQPcQmZbHUVVUpQJvY1zQZf5U9iZYLw06QAOKcyOlenGPll8TMGzduFBsbG6XFdaWg/JS6qjEo4tfEThnfCqWPOzctWxUqhaXfIDShfluOMXGOlelKtFwYdoIEEOdETg99Ha8rv2SraItArq2tzXISN905dxXWqLPT4/SCHvrGYC80dWWxYjvnRctYSf++wKy3J9FyYdgJEkCcEzk9dEOwrvySLT/lBaOpOC9axkrDElV2njx5shQ3K97+Bl3solRXFismzjH7JMF+3c45VMPQ25NouTDsBAkgzomcHio95R8B05t++ne7w9QQhzxF8OTJk1IUfbgjJGbyNxtPlTEkVOLr7tVhqbJTzrGhF3nv485+3rGyVbEwRBuOPiQS4hOzJ9FyYdgJEkCcJ+h0pgwBCAyfAOI8fB8tbOHXfvZn5Tm84nt/8zfLvnjfjsff796IfStlrRZeh3TQjgDi3I5Xdq01Zpqd4QM0mHKbA3TKiE1CnEfsXJna32xuFu/8rd8qZymFX+X1ri99ifdz8Bj5UmF6AyOAOA/MIZgDAQhAQAggzqwDCEAAAgMkgDgP0CmYBAEIQABxZg1AAAIQGCABxHmATsEkCEAAAtmKszwi1jTHg//Vmrg9dK78ck5emvzeLo/YT6R1DE3yE6suEjveZml22Vebcbtoq7/IsylQQ/36LHG2jf91Y11bOU8fiatrp/Z00dci9rVZj6F1HkpD+/Dhw2J7e3uG0BYYWPRxwZzXYhfrucs+shVnyS9x/vz5oJBaQPrhCiXXsdnS5ByfkaypOOvibpOQvctF3GVfXS6upn1V5Yn2fvzYxz5WrLsfg+jPty178WOorbenSbsmbXTtLMM+yWPi16mM5zcLNveKzlPF2m5E5GLoxVna3bp1q8wT3uZn/CH/5r4Wm67ZPtplK866QDd3n+OVhD6hlyy6q1evBgU8JKi6c5YPhBfaup1zk2xo3r4uF3GXffWx6PwY6ou6b0J1IhkSqqGIc5WQNrVPzo+tx5DgKmOfeCrUVtl+5Stf2SfcbddD7mux7XyX2T5rcZZd02/t/sDCfkWzsGILxS9UXaSyi/CZ19qKc5d1+2J17UJlljQRkvCQC83du3dnuaB9MqJY/yowsrPSlxfSWN0+2ZFZm+wODXEOf8SbrsfYOrcVZ/yatxuLp0+fRivZxNZK7mtxmWLbtu+sxbnuQ93kA+9zDdvdmS9ntIg4S78+/3Kbr5BN6uyp2OnPtTWME4rp+v5i/fvdl4YSdIwmdftkYVbVAWwSFqraOY89rKE77Kr12KQ0mBUFL86hDYpdq7FvfJ6/F2fr9xzWYlsBXWb7rMVZwFTtGpqEGrzIWAHwi66JONu4ttq1aIL7pnX2rDjbXamfo+6Cz5w5U8ZvY/0fPHiwrE4dCjnIubrbqqt/6IVF/WZDR9KmLmZfd2POn9fkRp/YUNXOxngX7Uu/uUg9RH216VPFuWo9LirO/vOjcerQjcHYWtGaj7mvxWUKbpu+sxdnWejXrl3bF3duKs627JLfnYkga3ijTpxlRyAvSeauL130i9bts85sUmevahfcpKxVqH8Z31cHsTZ1VbcvxNDP3cZpddzQDaxFb+LVjVv14fJjLsO+0Hq8cOFC5cUzZKvdKYcu3LbiTtW9nNCFLSTIua7FNgK6zLajFee6XbUCrYo56xMBulDlsSqJQ4cKk8oHRneh1lFdirN/isR/gEJxPv1gVe2cm9bxayLOsbqCoW83ob/pUwOhewghwbUFB/zOtOkNt1i7RYS+a/uq1mNdzNlvUuya9/cJ7PoNFee1oqzfLsa6Fpcpuk37zl6c6xbmPE9r+A9rVaFSCzgkKl2FNULiWldnr+1uJdZ/qHSTnXuTbyhNxDkmglXH9Qkb+2x6rC8bXlimOKuYyb9d2Rdaj3VPa8ixL37xi7Pxte1nPvOZcscdCiWFHsGTOcTWii/Im+tabCqey26XtTg3uekXKvGkghJ6zjn0YdU+Qs+bioNCz+nahemfQdX+mjxTGhI/venXxVfJJv3HbvjZr9s2rFP3gxzLZ5Ebgmq//RHLkMR5GfaF1qPw9LtdvQFnBVjFWb45WdG2QmN36Pa58iZrZZFvcU36X/ZaXLbgtuk/a3Gu+xoci4tW/UIwJM66WGPibPv0uwYbz21bty9W126RD4RwivUvbfxX4NBz4PZROyuWsZ3zIuJs7deLVd0NN2mvtjcR8S76Ur5d2Ve1Hr0fZa5VvxAUX9X9KjN0wW2yVnJfi23Ec9ltsxZnWUB1P0JZNjztP7SD//of/mHxbLfBd//ET5TNeL+XR2in1uYXln35lnEgkIpAtuLc9OfbfYD1Oz8R4tc+8pHiwO7g3/eFL5T/8t7x+MmfLN79jW+U7mkSt+7Dj4wBgSERyFacY8/F9g3ZJj7a+PSn95SCkq+W3//KK6VJUipK3+/85V8W7919FKru9dHnnis+tvtf6HzfX27v33L69CykUhUy6tuPjAeBoRDIVpyHAjBmxz/u/mxZXiJE8uL9Xh4xfhyHwFQJIM5T9TzzhgAEBk0AcR60ezAOAhCYKgHEeaqeZ94QgMCgCSDOg3YPxkEAAlMlgDhP1fPMGwIQGDQBxHnQ7sE4CEBgqgQQ56l6nnlDAAKDJoA4D9o9GAcBCEyVAOI8Vc8zbwhAYNAEEOdBuwfjIACBqRJAnKfqeeYNAQgMmgDiPGj3YBwEIDBVAojzVD3PvCEAgUETQJwH7R6MgwAEpkoAcZ6q55k3BCAwaAKI86Ddg3EQgMBUCSDOU/U884YABAZNAHEetHswDgIQmCoBxHmqnmfeEIDAoAkgzoN2D8ZBAAJTJYA4T9XzzBsCEBg0AcR50O7BOAhAYKoEEOepep55QwACgyaAOA/aPRgHAQhMlcAoxPnAgQOl/65fv16sr6/PfKl/f/ToUbGysjJqH9+4caPY2NgopjDXUTuSyUHgWwSyF+c7d+4Up0+fLqdz7NixYmdnZ3Li/Pjx4+Lw4cPF2bNni+3tbRY3BCAwAgLZi/O5c+eKmzdvFpcuXSq2traKe/fuFaurq6VrprJz1l3z7du3i1OnTo1gWTIFCEAga3HWHaMIs+waT5w4sWf3aMVZXC27S3mJiOluW869cuVKoSKvx0Xk7t+/X/ZpXz50cvny5fKioC8vkLZfafPs2bM9/amN1iZpYC8yMTuOHz9ePHjwgJAGn2cIjIhA1uLsd4wqhBp3rRJn7z8Jh4i42ZeIqJ7v26tweuHVdnpcRdOfbwW6agwr5HV2HDx4cHbR8cI/onXKVCAwOQJZi7OKn4qSxp91d1u3c5adsd31ah91oRAVY9nlHj16dCaKejHQ8WUXLztyv5PXi4ndffubmfptQFZi1c09a8ehQ4fKcXy8fXIrmQlDYGQEshXn0Fd99Y0KVZU4qxCrWGpoQ85XwbdhBb9DFnGWl4RGqm7Cad+h9WLHC10MQjZIPyE7VJy5GTiyTybTmTyBbMXZx3pDoQeNF8sOVF4ac24qznq+trc71kXE2QppE3HWNiE7EOfJf4YBMFIC2YqzFyz1jw0tyFMcGh5oK84vvfRS8eKLL5bhCblhKC978y4U1tDdvOzcr127VruzVntj4nz37t3y+eUqOwhrjPSTybQmTyBLcVYBtoJlPelvoM2zc3755ZeLCxcuBBeIPpFRdUNQj1fdELRPdMTE+cmTJ7MnS7wx2k/VhWryqxsAEMiYQJbirKJo48LWBz7kMY84S9+y89bH5OzjevaiEHuUzgu0f9QuJs7yzLYdI2SHf0ol4/WI6RCAwLcIZCnOeG8vAX6EwoqAwPgIIM4j8answHliYyTOZBoQkHtcu08A7P3JGliyJEDioyzdhtEQqCSAOLM4IAABCAyQAOI8QKdgEgQgAAHEmTUAAQhAYIAEEOcBOgWTIAABCCDOrAEIQAACAySAOCdyijz6VpccP3a8jdld9tVmXNpCAALzE0Cc52e31DO7FNQu+1rqpOkcAhCYEUCcB7oYuhTULvsaKC7MgsDoCCDOiVzqBdPm4JBk/JKJrmlNQJugX6fjs9jZJEmhklia/U7O9780jPUv5/gkUL5QQN1xZaGlw6S/pnNP5D6GhcDSCSDOS0ccHsCKswjz2traLDWpzRvdpGCrF3rN2qeJoexxn8FOkyr56iw+c5597/sXe+Wllb/1uM0/bY9ralVrnxz3FW2qKsEkchnDQqBXAohzr7i/PZgKpuZjtr+i151qk92jtF1ZWdkzCz2/SpxDQmvHF7E9c+ZMsb6+XsT61xqGISGVc58+fVqW0fJZAuSiIC/JlS0sfOFc+VtV1sFELmNYCPRKAHHuFfd+cRZRu3r1arGzs7PHknnixFXpSf3OuYk4HzlyZLaTV8NC/csxCUdUpWjRXXQIs4ZPQnOdZ/6JXMmwEFgKAcR5KVjjnar4dCHOKpoaZ/Y770XFua7/JuJ88eLFfRcfSwhxjq8XWkyPAOKcyOddhTV8fFemozFdfxNQ4tdV8Wkf1tCdc6x/DctUxYfVlrr4MeKcaBEy7KAJIM6J3ONvCErdQb2h1uaGYEj89KZfF+LcpH9/Q9Df8JPjDx482LN7Fht1p484J1qEDDtoAohzIvd0+SidL5UlN9LOnz8/ewJk0bBGrH9B6B+V8zfz/PG6p0OkP2uznBuKgSdyHcNCoBcCiHMvmPcP8s/375cC9F3veU95kPd7eXhicoHQKuiJXMawEOiVAOLcK+43BvuXXWF+7YMfLP//Xa+8Ig/4Bt//z298ozjz2msJLBzOkBILlzCJ/EhGHu3jBYGpEECcE3j6rw4fLt5x6VI58t++9FIpzu/4pV/a9/7BV79a/Mjuc8B1r0+/7W3F2Te/OXh+rP+hH3/+woVy6rJrvrD7//557gSuY0gI9EYAce4NtRlod0dcfOd3ln94/eWXy39ViHi/l0cK9zAmBIZAAHEeghewAQIQgIAjgDizJCAAAQgMkADiPECnYBIEIAABxJk1AAEIQGCABBDnRE6JJfaJHe/abPmZdpP0pE3HXbS/vuffdF60g0BfBBDnvki3HKdPcer6F3hd99cSHc0hMAoCiPNA3Yg4D9QxmAWBngggzj2B9sN0mVtD+q4rA+VzKtsSVvY8Sb4keaVjZanqykqF+ovZp0mQtra2SkySwe7w7g91NHFTzJ5ELmRYCCyVAOK8VLzVnfusdIuUqarLCicWSCUSm7LTXxh8GKIqrWjTslK+v1jWOhlPLwxKrEmyJiqlJFq8DNsLAcS5F8z7B+kqn7Om56wqAyXVRrw4e2usmMbKUq2urkbLStn+YvbVlamSnfPRo0ejZbgSuZBhIbBUAojzUvHGd86LVkJpUgbKhhp8ZW0NOTQtSxVK2C99VKX4bGJf03zOVWW4ErmQYSGwVAKI81Lx9iPOsTJQaoUVSh93tuLcpuxVKAxhd84yZsy+mDjH7EnkQoaFwFIJIM5LxRsX50WrbzcpA+Wt8ILpxdQXbK0rexUT5yb21Ymz9B+zJ5ELGRYCSyWAOC8Vb1ycJUwgO8N5y1RpWKKqDNTJkydLcbM3BP0NulCM2N9AlHFCZa9i4hyzT2POtiK4DZOEahT6MlyJXMiwEFgqAcR5qXibibO0svFUKeG0sbExE8MmJtaVgbpx40bZn7583NmGO+TGYqwsVSwM4ftTgb558+bMhjZlqmL28KOXJiuENrkRQJxz8xj2BglQxoqFMTYCiHMij/7Nz/xMOfI7P//58l/et+Px+uc+Vzz/0Y+W7ChjlWgRM+xSCSDOS8Ub7lxjpgmGHt2QGoahjNXoXDv5CSHOCZbA1154ofjez362HPm1D3+4OLD776E/+APez8EjgfsYEgK9EECce8HMIBCAAATaEUCc2/GiNQQgAIFeCCDOvWBmEAhAAALtCCDO7XjRGgIQgEAvBBDnXjAzCAQgAIF2BBDndrw6bW3r7PVZ+SQ2iSHZErOV4xAYKwHEOZFn+clxIvAMC4FMCCDOiRyFOCcCz7AQyIQA4pzAUaE6e6GyTJJNTl++JFNdzcDYlEI1AG3/oTJWNmmRZqyrSqRvS05R/y/mDY5DIEwAcU60Murq9unPu1UwVQT1vU/5qVnnbJrPumnF+vdVTaSv7e3tskvNzxyq36dCbNN/xuoRJsLPsBAYPAHEOZGLYuJsU2qKidq+qiZgmzCJCGZV/za/cqgQgNgiGeDkJW3ty/fbpB5hIvwMC4HBE0CcE7koJs4++bzsjm/dulVsbm7uqwyigvnw4cPZDje2c67qX3bIutuVPmxoxfbpc0L73bwfn/p/iRYaw2ZLAHFO5LpcxDlW/08vDF/84heLnZ2dfTSp/5dogTFs9gQQ50QujInzkMIadbHsuni3xsolrae+fD3CRPgZFgKDJ4A4J3JRTJzFLP9UhL6Xc23NwHlvCFb1728IVtUn1Ph36Oag2B8q7kr9v0QLjmGzI4A4J3KZr7PnH6W7dOlSsbW1NbPO714XfZSurv/Yo3S6q/c2WJRqL/X/Ei0whs2eAOKcyIX/7wtfKEf+7o98pPzXvhdx/KNPfrJ4/4kTweO+fdv3y+6/iT0WO/X/Ei1Chh00AcQ5gXsoU/UGdIlFU/8vwQJkyCwIIM4J3PSXb3lL8a5XXilHfu0DHyj/te/f/U//VHzp058u3v9DPxQ87tvr+52vfKV477cKx1ZN66Pf8R3F5/71X+fqv8reKntC7Z988IPFD3z96zPzZNdM/b8Ei5AhB08AcU7son/8kz8pLXjL+99f/jv294lxMzwEsiGAOGfjKgyFAASmRABxnpK3mSsEIJANAcQ5G1dhKAQgMCUCiPOUvM1cIQCBbAggztm4aj5D25ScatN2Pmu+fVafYy1qK+dDIAUBxDkF9R7HbCOCbdr2OAWGgsAkCSDOI3d7G8Ft03bk2JgeBJITQJwTuaCqVNTdu3eLjY2N0iqfM1n+FsupYfMmSw4M6cvmbq47P5ZTo2mlFbGTUliJFhbDjoYA4pzIlfoTbk2nqQmCbKrQkFiKuVoyymejE2FeW1ubVShRIVZx9gnxfcmpuvJU82a+qyq1RSmsRAuPYbMhgDgnclVVbT2b+1jE9MyZM8X6+now/abupI8cOVLusk/sJkqy59uafk1KTqlN2jaUCU/G8uWpQggphZVoYTHsaAggzolc2VScVQxDievFdNlxS3kqEfGrV6/uq0bSpuSUb2uF3o6lO/c6dKH4tZbaohRWokXHsFkRQJwTuSuFOMdKTqUS55hdemGgFFaixcqwSQggzkmwf/uG2alTp0oLQjtjWy0lVFVknrBG3U29lGENSmElWogMO1gCiHMi17TdOasQ15WnkhuCx44dm90wDN0QrCo5JXHkuvJU894QpBRWogXGsNkTQJwTuXAecVaBvnnz5sxqv+Ns+yhd7OmQurFiMWdKYSVaXAw7CgKIcyI3fvMf/qEc+bnv+Z7y37G9l4vPrT/6o+L0hz6UZH7erZTCSrTQGXZuAojz3OjmP5EyVfOza3smpbDaEqP9UAggzgk88b9Onize/L73lSP/45/+aXFg9983/+iPZvH+f9y5U5z68z+vpfafDx8u/tujR8UXdp+9/uGvfjXZ/A5+6lOlnZTCSrDIGXJhAojzwgjbd/D1P/7j4t/8+I+XJz79xCfKf1VIeN8tj/be4QwIDIMA4jwMP2AFBCAAgT0EEGcWBAQgAIEBEkCcB+gUTIIABCCAOLMGIAABCAyQAOI8QKdgEgQgAAHEecRrQPJ1aO6OWJWT2PEYpkXPj/XPcQhMjQDiPFKP26RJTaa4qLguen4TG2kDgSkRQJxH6m3EeaSOZVqTIYA4J3R1XT0/rWJizZNEQlqFJFSjz5aj0oRFkqVuZ2dnT8Y56bMuQVJs7Nj5CZEyNARGQwBxTuRKX8/P53OuylqnNfl8DUI9X7PU+Z2z7S9WazA2duz8REgZFgKjIoA4J3Cn7kxDCeblmLxWVlb2WKbnWHG26T6lsYiqHq8S51AtQVtr8OjRo7Vjyzh1tQr1BmQCrAwJgVERQJwTuLOqHmDIFBt+kOMaugjdgPPJ8m0xVj0mF4S6WoNWXENjtzk/AVqGhMBoCCDOCVzZRJxVGDXObHe3IqDLFOe6sRHnBAuGISdJAHFO4PaqeoBqSki89ZxFd86xsIbYcPr06cJW3rZjx84nrJFgQTHkKAkgzonc6m8IqgBKzFjjujYmrTcAFxVnEc+6WoMqvnVjx2oVJkLKsBAYFQHEOaE7/aN0ejNPTJIE8VtbWzPr5Nj58+eLtbW18nG6WFhDd9/SgeyCffu6R+liY0ufsVqFCbEyNARGQQBxHoUbmQQEIDA2Aojz2DzKfCAAgVEQQJxH4UYmAQEIjI0A4jw2jzIfCEBgFAQQ51G4kUlAAAJjI4A4j82jzAcCEBgFAcR5FG5kEhCAwNgIIM5j8yjzgQAERkEgS3HWPBM+K9soPMIkIAABCOwSyFKcxXP667pQ2k08CwEIQCB3AtmKs/48md1z7ksQ+yEAgRCBbMVZQxtahgn3QgACEBgTgWzFWZygmdoIbYxpSTIXCECg1LfdjGXPckWhmdFsNrdc54LdEIAABCyBrMVZbwoizixqCEBgbAQQ57F5lPlAAAKjIJC1OBPWGMUaZBIQgECAQNbirDcEMw6bsyghAAEIBAlkK876KN3Zs2eL7e1t3AsBCEBgVASyFWd+hDKqdchkIAABRyBbcdYnNQhpsKYhAIExEshSnEl8NMalyJwgAAFLIEtxxoUQgAAExk4AcR67h5kfBCCQJQHEOUu3YTQEIDB2Aojz2D3M/CAAgSwJIM5Zug2jIQCBsRNAnMfuYeYHAQhkSQBxztJtGA0BCIydAOI8dg8zPwhAIEsCiHOWbsNoCEBg7AQQ57F7mPlBAAJZEkCcs3QbRkMAAmMngDiP3cPMDwIQyJIA4pyl2zAaAhAYOwHEeeweZn4QgECWBBDnLN2G0RCAwNgJIM5j9zDzgwAEsiSAOGfpNoyGAATGTgBxHruHmR8EIJAlAcQ5S7dhNAQgMHYCiPPYPcz8IACBLAkgzlm6DaMhAIGxE0Ccx+5h5gcBCGRJAHHO0m0YDQEIjJ0A4jx2DzM/CEAgSwKIc5Zuw2gIQGDsBLIX58uXLxdbW1t7/PTs2bPe/HbgwIFyrEePHhUrKyu9jasD3bhxo9jY2Eg2fu8TZkAITIRA1uKswhjy1b1794rV1dXO3Xju3Llic3OzOHXqVNl3SnF+ApZ/VQAADwhJREFU/Phxcfjw4eLs2bPF9vZ253OlQwhAIB2BbMVZd8zHjh0rdnZ2ZgSPHz9ePHjwoPB/7wKxCPPNmzeL27dvz8S5i37n7UN3zUOxZ955cB4EILCfQLbiXLVjvX//fnHixInChzZUyBTBpUuXiitXrsyIaH8idKdPn579XXfgKsx6QMU/ZIdv622JjaVjxPrRC1GqkAofKAhAYHkEshRnFeCmX+dDcWlBanfXdSESEdem4qyC6V1mBTo2lpwb60dDGtK2zxj78pYiPUMAApbA6MXZipiNQ9vdq8SP9f3169eL9fX1wp6nO9NQWMPunJ8+fVru2u1FQ3fs2q/Aj43VpB+9QC0jfMNHBAIQSE8ga3FuIkx37twpwxR+l62iqeGNUHhCd68+tGFjvPY8+bs8ORF62TBKbKy7d+9G+2n77SH9UsMCCECgDYEsxTm0q9VJ6zH9qj8UcbYXh0XEWftBnNssc9pCID8CWYqzYG76tEbbsIa9udZ25/zqq68Gd+l+WcTE+cmTJ9F+CGvk92HDYgi0IZCtONvYbWjCNr5cdUOwzW5Wnpm2NwWrntaoupFXFQrRH674C0Gbfrgh2GbJ0xYCeRDIWpztDtriDolV00fp6nbOuluVseoepfPC6p9Dju2c9cczsX70YsGjdHl82LASAm0IZC/ObSY7trb8CGVsHmU+EPg2AcQ589Ugu/Cmz3tnPlXMh8CkCCDOmbubxEeZOxDzIVBBAHFmaUAAAhAYIAHEeYBOwSQIQAACiDNrAAIQgMAACSDOA3QKJkEAAhBAnFkDEIAABAZIAHFO6BTJ+6EVVRY1I9aXPS6P35Ggf1HinA+B5RJAnJfLt7J3+XXfkSNH9iT8n9eUWF+x4/OOy3kQgMDyCCDOy2Nb23OXghnrK3Y8EQKGhQAEagggzgmWRyiBkpjhq61ozgxN3GSTOWlbyfEhNRPlFcpvXZWsScMaGuIIleZSNFV2JUDHkBCYDAHEOZGr/W5W3stLq2hrkiUVZBVoSeqkOapthZa6EIkfy8acNQmTjqN92wID1i5+kZhowTDs5AggzolcbgWzqiitCLK8tBCt5tGQCuC27FUsbBETZ9uX7uBF7CVnh5Td8lnvYuMlQsqwEBgVAcQ5kTutwOluNWSKTWpUVf0kJpYxcfZPbsju+NatW8Xm5maZ9N+nYJWLxsOHD2e7/EQIGRYCoyaAOCdyrxfnixcvFjs7O7XW2JzUVjAR50ROZFgILJEA4rxEuHVdh8IadUnztdyW7HJFyNfW1mbhjkXFmbBGokXAsBCoIYA4J1oeoRuC8tSF3T1LjFmrdktVFHkaQ24YanhDwxGLirMg0AtD6GajtYsbgokWDMNOjgDinMjlNs6sIQr/yJruaPXvNpShIilPVWhBWJlKqESXH8s/rSEXgK2trRmJ0A1AuQmpL3s8dmFIhJdhIZA9AcQ5excuNoEufsotNwj1iZLFrOFsCEBACSDOE18Li4qzhFju3r1brK+vT5wk04dAtwQQ5255ZtfbouIsu+YLFy4UKysr2c0dgyEwZAKI85C9g20QgMBkCSDOk3U9E4cABIZMAHEesnewDQIQmCwBxHmyrmfiEIDAkAkgzkP2DrZBAAKTJYA4T9b1TBwCEBgyAcQ5kXfaPsIWqxHYxzTa2NymbR+2MwYEciOAOGfgsaH8RLqN4LZpm4ELMBECvRNAnHtH3n5AxLk9M86AQO4EEOdEHvTJhyTDnK3jZzPOadKhUI1AMb+qDqD8rHpjY6OcoU3ar1OO1QaUTHhan1CSMElfNjF/3fl+5xwbK5EbGBYCgyWAOCdyTaiOn2aUa1sjUOsA6vlab9DmaQ6JpUxdaxb6VKAizD5ntFwk7EXDnu9rHtrxfH1E0o4mWnQMmxUBxDmRu7w4+4T3ctwWWa0r4OqFV8XdV0s5c+ZMmaBIhbSqNqDWDrTn22T/hw4dKmsLhspXCU7JUKc2aVvqECZaaAybLQHEOZHrQmGNU6dOzazxO88uxFn7CIm3DKy1AUXEr169uq9sltokbW0IxiLU8IlvSx3CRAuNYbMlgDgncl3u4hyreYg4J1pYDDsaAohzIlemFOeuwhp1NQ8JayRaWAw7GgKIcyJXphRnmbLcpKurDWhrFmp7f0OwruahD8tQhzDRQmPYbAkgzolc10acQ/UGrdlNbwj6uHXs8ba2j9LFng6hDmGixcawWRJAnLN02/iMpg7h+HzKjBYjgDgvxo+zOyBAHcIOINLF6AggzqNzaX4Tog5hfj7D4uUTQJyXz5gRIAABCLQmgDi3RsYJEIAABJZPAHFePmNGgAAEINCaAOLcGhknQAACEFg+AcR5+YwZAQIQgEBrAohza2TdndBl6alYX/Y4VUq682FVTzF/LN8CRsidAOKcyINdVjeJ9RU7ngjBaIeF92hd2+vEEOdecX97sC4/wLG+YscTIRjtsPAerWt7nRji3CvuNwazOS1s6amqXBda2UST79s+5HwtJRUqYxUaK1Yiy47j7ZX3ddnoQjhjOTyalLuy+aPFvroSXFVlu1ZXV0vzQmGdNmW1bK4T6e/SpUtlgYF5fJtg+TFkJgQQ50SO8rsrX8rJl31SgZak9W3LWPmxQiWyVJC1b1uFRRBVlbOK4fPz8on+YyWs5inBpedUzSkmznW+kPlKFRh7gQoJu00yFZtjjCHHp0kAcU7kdyuYKsR1ZZ90xyeVRiS7m80AF/saHRNnXyJL22u5qnlLTGlpq9BOW449ffp0n9Dp7lPFrWnGPS3BpZyq5mRLaIUqz8RKcFUxscso5Nt5GSZangw7AAKIcyIn2A+w/5psTbJVs1XEfSXtRcXZVtSWsaUA661bt4rNzc2yHNW8JaaqymHp/GLlsmS33lSc7U41tDPWOYX6tKEO+f9YCS4bhqmqat60JJh+I0m0DBl2wAQQ50TO8eIcK/ukormxsVFa7Iu31tUYjO2cEedvx6GFbRNfSDt7UfVxZ8Q50QdrRMMizomc2eSrrzXNVr8W8VhbW9tzE2oRcV5WWKOqHJbOK1YuKxSCqKos7nfOdWENKSJw7dq1QsMaocribW56ik1W0Jv4NvZtJ9GyZNgBEUCcEzkjdEOwruyTLRuloqY73tgHPbZzFgQqRqGbjYuUmIrd6JTjdf3PG9aIzUmOa0hBb7ZanlW+OHnyZBn2sOLt5xjzrYRY5BtQmwtAomXKsAkJIM6J4IdKT/lHynT3p3+3oQz9gMsTCU+ePJnFSX182H/9luP+aQ35Sr61tTUjEbp5VVViqgk+P682j+rNK86xOekTHWK/iLIIrg3vVPnCh5fkvY87N/GtF/e6bz5NGNNmfAQQ5/H5dN+M/vnP/kyCqsWb3vve8ph9LyL1yq//evEff/iHg8d9+xzel3P6jd8o/tMLL+yb7xDsDy05ynRN4IPYcoqIc0tguTUXIf7fH/hAuVt+15e+VJpv37/5fe8r/vtb31r8hze9KXjct8/hvczpd972tuInd584Gaq9P/C1r82WEmW6cvtU9WMv4twP52Sj/NU731kc/NVfLcd/+vM/Xzzb/fff/tqvzd7/wN/9XfGHv/ALxY/t/tIwdNy31/c7jx4VP/LJT9bO64Vdwf/4W96yZ7yq/qrsm6f9v//WnE58/vP75jtPf5ZXV+e/9ad/esaOMl3JPh6DHhhxHrR7ujXu73/7t8sOVRh4n5ZHt96lt7ERQJzH5lHmAwEIjIIA4jwKNzIJCEBgbAQQ57F5lPlAAAKjIIA4j8KNTAICEBgbAcQ5kUfblooaQtmjNja3aZvIBYMfdgg+HzykERuIOGfg3NjPs/uaQhvBbdO2L/tzGmcoPs+J2dhsRZwz8OhQPqhtBLdN2wxc0LuJQ/F57xNnwBkBxDnRYoiVirJJeDSvRagMlZhfVZaprpSTnOfzR/icGpJsSUtgSZ4PSdZTl38iVh2ky/wcbfJ/zMOHUleJPhgMizinXgOhUlGatKhtGap5SjnFSieJMPu0pCKu9qIhDDWzmy+rZecXGyvmC38+pa7eKIhAZrvYysn7ODvnRP7z4uzzD8txW8evLmtZ08xtWsoplkdZSzHZDHehnMd1ZbXUJi37NG+ZJkpdXSli/tLisomWMsMuiQDivCSwsW5DYY1QTTv5Wyz+2FScm1bnEBG/evVqsbOzs2caOo78MVbKybel1NUbKDW9KKWuYp8QjiPOidZA7uIcK+U0dXGO8dFlR6mrRB/ADIZFnBM5KaU4x74mNw1r1FXy6CqsQakrwhqJPqLJh0WcE7kgpTjLlGPloWxZLG3vbwjWldXyNwQpdfXGUzVSoYVSV4k+dJkNizgnclgbcQ6VPbJmt40567ldP0pnb2p6m2JjxdxAqav4o48xhhzPiwDinJe/sLYnAvyIpifQDFNJAHEeweL4Pz/1U+Usvu93fqf8l/eL8zj0u787e6Z76DxHsISZQoAA4pz5siiF45vffGMWzz33xr+ZvP/y668XP/bKK7Ue+PndH8P81/e8p/f5Hfr93y9uvv/9xcnv//5B89QLcubLGPMR5/Gtgb998cXiHS+99MaO+fz5N3bQv/d7vJ8Aj6e/+IvFwV/+5fEtamZUEmDnzEKAAAQgMEACiPMAnYJJEIAABBBn1gAEIACBARJAnAfoFEyCAAQggDizBiAAAQgMkECW4qxpJH2azQHyxSQIQAACcxHIUpxlpvpz3rrkO3MR4SQIQAACAyCQrThrvgl2zwNYRZgAAQh0TiBbcdbQRlVdvc5J0SEEIACBHglkK87CSGvnEdroccUwFAQg0AuBrMVZq0Nrrb1eiDEIBCAAgR4IZC3OelMQce5hpTAEBCDQKwHEuVfcDAYBCECgGYGsxZmwRjMn0woCEMiPQNbirDcEnz17lh95LIYABCBQQyBbcdZH6aRS9Pb2Nk6GAAQgMCoC2YozP0IZ1TpkMhCAgCOQrTjrkxqENFjTEIDAGAlkKc4kPhrjUmROEICAJZClOONCCEAAAmMngDiP3cPMDwIQyJIA4pyl2zAaAhAYOwHEeeweZn4QgECWBBDnLN2G0RCAwNgJIM5j9zDzgwAEsiSAOGfpNoyGAATGTgBxHruHmR8EIJAlAcQ5S7dhNAQgMHYCiPPYPcz8IACBLAn8f6G09lKJW+lzAAAAAElFTkSuQmCC;" vertex="1" parent="1">
          <mxGeometry x="81" y="247.32999999999998" width="231.56" height="412.17" as="geometry" />
        </mxCell>
      </root>
    </mxGraphModel>
  </diagram>
</mxfile>
